/* XPM */
static char * param_xpm[] = {
"16 16 6 1",
" 	c None",
".	c #000000",
"+	c #F4F0D0",
"@	c #648CC8",
"#	c #303030",
"$	c #AD6319",
"..++@@@@@++++.++",
".+@@@@@@@@@+....",
"+@@@@++++@@@++++",
"+@@++++...+@++.+",
"@@+.+++.+.+@@+..",
"@@+.+++.+.+@@+++",
"@@+.+.+...+@@+++",
"@@+..++.+.+@@+#+",
"@@+.+.+.+.+@@###",
"+@@+++++++@@++++",
"+@@@@+++@@@@++++",
"++@@@@@@@@@$$+.+",
"#+++@@@@@++$$$+.",
"++.+++++++++$$$+",
"+#####+#####+$$$",
"++++++++++++++$$"};
