/* XPM */
static char * search_xpm[] = {
"16 16 108 2",
"  	c None",
". 	c #4A6792",
"+ 	c #E3F5FC",
"@ 	c #E5F5FC",
"# 	c #D2EDFA",
"$ 	c #DBF1FB",
"% 	c #CBE9F9",
"& 	c #ADDBF4",
"* 	c #C0E4F7",
"= 	c #A2D7F4",
"- 	c #9DD4F1",
"; 	c #D7EFFB",
"> 	c #CBECFB",
", 	c #D5F0FD",
"' 	c #D1ECFA",
") 	c #D8EFFC",
"! 	c #A7D8F3",
"~ 	c #9AD3F1",
"{ 	c #97D0F1",
"] 	c #AEDEF7",
"^ 	c #BEE7FA",
"/ 	c #BDE8FC",
"( 	c #C8EAFB",
"_ 	c #CFEDFC",
": 	c #D9F1FB",
"< 	c #C2E5F7",
"[ 	c #A2D5F1",
"} 	c #98D1F0",
"| 	c #93CFF0",
"1 	c #91CDEF",
"2 	c #A3D9F4",
"3 	c #B1E0F7",
"4 	c #B8E6FA",
"5 	c #BCE7FB",
"6 	c #C2E7FA",
"7 	c #B1DFF6",
"8 	c #87C8EC",
"9 	c #89C9ED",
"0 	c #8BCBED",
"a 	c #8ACAED",
"b 	c #86C9ED",
"c 	c #9CD6F3",
"d 	c #89CDEF",
"e 	c #9FDBF5",
"f 	c #78C5EA",
"g 	c #7BC4EA",
"h 	c #7AC2EA",
"i 	c #7EC5EB",
"j 	c #81C6EB",
"k 	c #80C5EB",
"l 	c #7CC4EB",
"m 	c #AFE3FB",
"n 	c #A5E0FA",
"o 	c #45B8E5",
"p 	c #80CDF0",
"q 	c #78C6EC",
"r 	c #6DBEE8",
"s 	c #6FBEE8",
"t 	c #73BFE8",
"u 	c #71BEE8",
"v 	c #6DBDE8",
"w 	c #A8E1FA",
"x 	c #9FDFF9",
"y 	c #06A8DE",
"z 	c #27ADE0",
"A 	c #56B9E6",
"B 	c #A0DBF6",
"C 	c #A2DAF5",
"D 	c #76C3EA",
"E 	c #61B9E5",
"F 	c #61B9E6",
"G 	c #5EB8E5",
"H 	c #8AD5F4",
"I 	c #99DCF8",
"J 	c #80D2F0",
"K 	c #04A8DD",
"L 	c #27B0E1",
"M 	c #A6E0F8",
"N 	c #ABE2FA",
"O 	c #ABE2FB",
"P 	c #83CEEF",
"Q 	c #5ABAE6",
"R 	c #26ADE0",
"S 	c #13ACE0",
"T 	c #7BD3F4",
"U 	c #7BD2F3",
"V 	c #A0DFF9",
"W 	c #A1E0FA",
"X 	c #01A7DD",
"Y 	c #00A4DB",
"Z 	c #40B8E4",
"` 	c #AD6319",
" .	c #00A0D9",
"..	c #12A4DA",
"+.	c #009DD7",
"@.	c #00A1D9",
"#.	c #00A1DA",
"$.	c #6EC8ED",
"%.	c #0CA1D9",
"&.	c #009CD6",
"*.	c #079FD9",
"=.	c #7AD4F6",
"-.	c #37B4E5",
";.	c #009ED7",
">.	c #009ED8",
",.	c #53C2EC",
"'.	c #1AA7DD",
").	c #009CD7",
"        . . . . . + @           ",
"    . . . . . . . . . # $       ",
"  . . . . % & * = . . . - ;     ",
"  . . > , ; ' ) ! ~ { . ] ^     ",
". . / ( _ : < [ } | 1 . . 2 3   ",
". . 4 5 6 7 8 9 0 a b . . c d   ",
". . e f g b h i j k l . . m n   ",
". . o p q r s s t u v . . w x   ",
". . y z A B C D E F G . . H I   ",
"J . . K L M N O P Q . . R S T   ",
"  . . . . U V W . . . . X Y     ",
"  Z . . . . . . . . . ` `  .    ",
"    ..+.. . . . . @.#.` `       ",
"    $.%.&.*.=.-.;.>.>.  ` ` `   ",
"            ,.'.).        ` ` ` ",
"                            ` ` "};
